# Blender v2.74 (sub 0) OBJ File: 'Wall.blend'
# www.blender.org
mtllib wall.mtl
o Cube_Cube.001
v -1.000000 -0.043044 1.000000
v -1.000000 0.043044 1.000000
v -1.000000 -0.043044 -1.000000
v -1.000000 0.043044 -1.000000
v 1.000000 -0.043044 1.000000
v 1.000000 0.043044 1.000000
v 1.000000 -0.043044 -1.000000
v 1.000000 0.043044 -1.000000
vt 1.000005 0.022477
vt 0.956818 0.022477
vt 0.956818 0.511237
vt 1.000005 0.511238
vt 1.000005 0.999998
vt 0.956818 0.999998
vt 0.948298 0.965376
vt 0.006899 0.965376
vt 0.006899 0.023786
vt 0.948329 0.023818
vt 0.948329 0.965272
vt 0.006683 0.965272
vt 0.006683 0.023818
vn -1.000000 0.000000 0.000000
vn 0.000000 0.000000 -1.000000
vn 1.000000 0.000000 0.000000
vn 0.000000 0.000000 1.000000
vn 0.000000 -1.000000 0.000000
vn 0.000000 1.000000 0.000000
usemtl None
s off
f 4/1/1 3/2/1 1/3/1
f 8/3/2 7/4/2 3/5/2
f 6/2/3 5/1/3 7/4/3
f 2/3/4 1/6/4 5/5/4
f 3/7/5 7/8/5 5/9/5
f 8/10/6 4/11/6 2/12/6
f 2/4/1 4/1/1 1/3/1
f 4/6/2 8/3/2 3/5/2
f 8/3/3 6/2/3 7/4/3
f 6/4/4 2/3/4 5/5/4
f 1/10/5 3/7/5 5/9/5
f 6/13/6 8/10/6 2/12/6
